<svg width="16" height="16" viewBox="0 0 16 16" fill="none" xmlns="http://www.w3.org/2000/svg">
<g clip-path="url(#clip0_22707_8376)">
<path fill-rule="evenodd" clip-rule="evenodd" d="M7.52864 10.4712C7.65366 10.5962 7.8232 10.6664 7.99997 10.6664C8.17675 10.6664 8.34629 10.5962 8.47131 10.4712L12.2426 6.6999C12.3063 6.63841 12.3571 6.56484 12.392 6.48351C12.427 6.40217 12.4454 6.31469 12.4461 6.22617C12.4469 6.13765 12.43 6.04986 12.3965 5.96793C12.363 5.886 12.3135 5.81157 12.2509 5.74897C12.1883 5.68638 12.1139 5.63688 12.0319 5.60336C11.95 5.56983 11.8622 5.55297 11.7737 5.55374C11.6852 5.55451 11.5977 5.5729 11.5164 5.60784C11.435 5.64277 11.3615 5.69356 11.3 5.75724L7.99997 9.05724L4.69997 5.75724C4.57424 5.6358 4.40584 5.5686 4.23104 5.57012C4.05624 5.57164 3.88903 5.64175 3.76543 5.76536C3.64182 5.88896 3.57171 6.05617 3.57019 6.23097C3.56867 6.40577 3.63587 6.57417 3.75731 6.6999L7.52864 10.4712Z" fill="#1E1E1E" fill-opacity="0.7"/>
</g>
<defs>
<clipPath id="clip0_22707_8376">
<rect width="16" height="16" fill="white" transform="matrix(-1 0 0 1 16 0)"/>
</clipPath>
</defs>
</svg>
