<svg width="103" height="24" viewBox="0 0 103 24" fill="none" xmlns="http://www.w3.org/2000/svg">
<path d="M32.325 3.38644H35.0114V9.75079H41.7404V3.38644H44.4204V18.222H41.7404V12.0071H35.0114V18.222H32.325V3.38644Z" fill="white"/>
<path d="M54.1164 8.02685V9.16597C53.6455 8.69821 53.1334 8.34772 52.5789 8.11319C52.0243 7.87867 51.4312 7.7627 50.7995 7.7627C49.4267 7.7627 48.2597 8.27169 47.2999 9.28967C46.3401 10.3077 45.8589 11.6143 45.8589 13.2083C45.8589 14.8023 46.3555 16.0303 47.3475 17.065C48.3395 18.0985 49.5167 18.6165 50.8767 18.6165C51.4827 18.6165 52.0449 18.5108 52.5634 18.2982C53.0819 18.0869 53.5992 17.7403 54.1151 17.2596V18.351H56.7578V8.02943H54.1151L54.1164 8.02685ZM51.309 16.1901C49.6531 16.1901 48.3112 14.8461 48.3112 13.1877C48.3112 11.5292 49.6531 10.1852 51.309 10.1852C52.9649 10.1852 54.3068 11.5292 54.3068 13.1877C54.3068 14.8461 52.9649 16.1901 51.309 16.1901Z" fill="white"/>
<path d="M61.7194 8.02264V9.145C62.2134 8.68369 62.7486 8.33705 63.3238 8.1064C63.8989 7.87574 64.5139 7.75977 65.1688 7.75977C66.593 7.75977 67.8025 8.26232 68.7983 9.26613C69.7941 10.2699 70.2921 11.5572 70.2921 13.1293C70.2921 14.7014 69.7774 15.9127 68.7481 16.932C67.7188 17.9512 66.4991 18.4615 65.0877 18.4615C64.4598 18.4615 63.8744 18.3571 63.3328 18.1484C62.7911 17.9396 62.2533 17.5982 61.7181 17.124V22.9522H59.0007V8.02264H61.7181H61.7194ZM64.5962 10.1179C63.7342 10.1179 63.0188 10.3924 62.4501 10.9413C61.8815 11.4902 61.5984 12.2067 61.5984 13.0932C61.5984 13.9798 61.8827 14.7285 62.4501 15.2864C63.0188 15.8444 63.7342 16.124 64.5962 16.124C65.4583 16.124 66.135 15.8405 66.7076 15.2722C67.2788 14.7053 67.5644 13.9811 67.5644 13.1023C67.5644 12.2234 67.284 11.5134 66.7217 10.9555C66.1607 10.3975 65.4518 10.1179 64.5962 10.1179Z" fill="white"/>
<path d="M72.859 4.35938H75.6586V8.14268H77.779V10.3603H75.6586V18.4076H72.859V10.3603H71.4231V8.14268H72.859V4.35938Z" fill="white"/>
<path d="M80.837 4.35938H83.6367V8.14268H85.757V10.3603H83.6367V18.4076H80.837V10.3603H79.4011V8.14268H80.837V4.35938Z" fill="white"/>
<path d="M89.3148 2.89014C89.7728 2.89014 90.1652 3.05637 90.492 3.38882C90.8188 3.72128 90.9835 4.12332 90.9835 4.59623C90.9835 5.06914 90.8214 5.45959 90.4972 5.78946C90.1729 6.11806 89.7857 6.28299 89.3341 6.28299C88.8825 6.28299 88.4746 6.11548 88.1465 5.78045C87.8197 5.44541 87.655 5.03822 87.655 4.55886C87.655 4.07951 87.8171 3.70582 88.1414 3.38109C88.4656 3.05508 88.8567 2.89271 89.3148 2.89271V2.89014ZM87.9188 8.00326H90.7185V18.0388H87.9188V8.00326Z" fill="white"/>
<path d="M102.999 10.2548L100.939 11.39C100.552 10.9841 100.17 10.7032 99.7916 10.546C99.4133 10.3888 98.9707 10.3102 98.4625 10.3102C97.5374 10.3102 96.7873 10.5872 96.2161 11.14C95.6448 11.6928 95.3579 12.4016 95.3579 13.2649C95.3579 14.1283 95.6332 14.7906 96.1839 15.3228C96.7346 15.855 97.4577 16.1204 98.3531 16.1204C99.4609 16.1204 100.323 15.7429 100.939 14.9852L102.891 16.3227C101.833 17.7002 100.341 18.3896 98.4136 18.3896C96.6792 18.3896 95.3206 17.8755 94.3389 16.8459C93.3572 15.8176 92.8657 14.6128 92.8657 13.2327C92.8657 12.2766 93.1037 11.3965 93.5824 10.5911C94.0597 9.78572 94.7262 9.15431 95.5805 8.69428C96.4361 8.23425 97.392 8.00488 98.4496 8.00488C99.4287 8.00488 100.308 8.19946 101.087 8.5899C101.867 8.98035 102.504 9.53573 103 10.2561L102.999 10.2548Z" fill="white"/>
<path d="M18.9093 3.08489C18.9093 3.56424 18.7163 3.9985 18.4037 4.3142L18.3831 4.33482L16.6539 6.0538L16.5394 6.16719L16.5368 6.16977C15.375 7.296 13.7912 7.98797 12.0465 7.98797C10.3019 7.98797 8.71935 7.296 7.55625 6.16977H7.55496L7.37998 5.99195L5.72411 4.33095L5.64563 4.24591C5.49123 4.0887 5.36772 3.90185 5.28151 3.69568C5.19531 3.4895 5.14771 3.26271 5.14771 3.02432C5.14771 2.57589 5.31625 2.16612 5.59416 1.85686C5.91324 1.50121 6.37642 1.27699 6.89235 1.27699C7.34653 1.27699 7.75953 1.45095 8.07089 1.73573C8.07604 1.74089 8.08119 1.74475 8.08634 1.74991L8.18412 1.85042L10.3045 4.00623V4.02942H10.3263L10.3045 4.00623V0H13.7333V4.02813L15.8343 1.95221L16.0543 1.73573C16.3554 1.48575 16.7427 1.33627 17.1647 1.33627C17.6961 1.33627 18.1721 1.57466 18.4925 1.94964C18.7524 2.25503 18.9093 2.65063 18.9093 3.0836V3.08489Z" fill="#9AE6E7"/>
<path d="M18.9093 20.9153C18.9093 20.4359 18.7163 20.0017 18.4037 19.686L18.3831 19.6654L16.6539 17.9464L16.5394 17.833L16.5368 17.8304C15.375 16.7042 13.7912 16.0122 12.0465 16.0122C10.3019 16.0122 8.71935 16.7042 7.55625 17.8304H7.55496L7.37998 18.0082L5.72411 19.6692L5.64563 19.7543C5.49123 19.9115 5.36772 20.0983 5.28151 20.3045C5.19531 20.5107 5.14771 20.7375 5.14771 20.9759C5.14771 21.4243 5.31625 21.8341 5.59416 22.1433C5.91324 22.499 6.37642 22.7232 6.89235 22.7232C7.34653 22.7232 7.75953 22.5492 8.07089 22.2644C8.07604 22.2593 8.08119 22.2554 8.08634 22.2503L8.18412 22.1498L10.3045 19.994V19.9708H10.3263L10.3045 19.994V24.0002H13.7333V19.972L15.8343 22.048L16.0543 22.2644C16.3554 22.5144 16.7427 22.6639 17.1647 22.6639C17.6961 22.6639 18.1721 22.4255 18.4925 22.0505C18.7524 21.7451 18.9093 21.3496 18.9093 20.9166V20.9153Z" fill="#FBE74D"/>
<path d="M21.0323 18.8921C20.5537 18.8921 20.1201 18.6989 19.8049 18.3857L19.7843 18.3651L18.0679 16.6332L17.9547 16.5186L17.9521 16.516C16.8276 15.3524 16.1367 13.7661 16.1367 12.0188C16.1367 10.2715 16.8276 8.6865 17.9521 7.52162L17.9534 7.52033L18.1284 7.34508L19.7868 5.68666L19.8718 5.60806C20.0287 5.45343 20.2153 5.32973 20.4211 5.24339C20.627 5.15705 20.8534 5.10938 21.0915 5.10938C21.5392 5.10938 21.9484 5.27818 22.2571 5.55652C22.6123 5.87609 22.8361 6.33998 22.8361 6.85671C22.8361 7.31158 22.6624 7.72521 22.3781 8.03705C22.3729 8.04221 22.3691 8.04736 22.3639 8.05252L22.2636 8.15045L20.1111 10.274H20.0879V10.296L20.1111 10.274H24.1112V13.7081H20.0879L22.1606 15.8124L22.3768 16.0328C22.6264 16.3356 22.7757 16.7222 22.7757 17.1448C22.7757 17.677 22.5376 18.1538 22.1632 18.4746C21.8583 18.7349 21.4633 18.8921 21.031 18.8921H21.0323Z" fill="#ED7243"/>
<path d="M3.04284 18.892C3.51503 18.892 3.94347 18.6987 4.25483 18.3856L4.27414 18.365L5.96861 16.6331L6.08054 16.5184L6.08312 16.5159C7.19346 15.3523 7.87537 13.766 7.87537 12.0187C7.87537 10.2713 7.19218 8.68638 6.08312 7.52149L6.08183 7.52021L5.90814 7.34496L4.27028 5.68654L4.18664 5.60794C4.03096 5.45331 3.84698 5.3296 3.64369 5.24327C3.44041 5.15693 3.21654 5.10925 2.98237 5.10925C2.53978 5.10925 2.13578 5.27806 1.83085 5.55639C1.47961 5.87596 1.2596 6.33986 1.2596 6.85658C1.2596 7.31146 1.43072 7.72509 1.7112 8.03693C1.71634 8.04209 1.7202 8.04724 1.72535 8.0524L1.82442 8.15033L3.94991 10.2739H3.97178V10.2958L3.94991 10.2739H0V13.708H3.97178L1.92606 15.8123L1.71248 16.0326C1.46674 16.3355 1.31878 16.722 1.31878 17.1447C1.31878 17.6769 1.55294 18.1537 1.92349 18.4745C2.22456 18.7348 2.6144 18.892 3.04156 18.892H3.04284Z" fill="#8080F7"/>
</svg>
